<mxfile host="app.diagrams.net" modified="2021-07-01T13:31:19.978Z" agent="5.0 (Windows NT 10.0; Win64; x64) AppleWebKit/537.36 (KHTML, like Gecko) Chrome/91.0.4472.114 Safari/537.36 Edg/91.0.864.59" etag="zJos7L6qO8-EG_hjo4LS" version="14.8.3" type="github">
  <diagram id="R2lEEEUBdFMjLlhIrx00" name="Page-1">
    <mxGraphModel dx="1038" dy="579" grid="1" gridSize="10" guides="1" tooltips="1" connect="1" arrows="1" fold="1" page="1" pageScale="1" pageWidth="850" pageHeight="1100" math="0" shadow="0" extFonts="Permanent Marker^https://fonts.googleapis.com/css?family=Permanent+Marker">
      <root>
        <mxCell id="0" />
        <mxCell id="1" parent="0" />
        <mxCell id="zEnzMZvFHLOG6NFuxoy2-17" style="edgeStyle=orthogonalEdgeStyle;orthogonalLoop=1;jettySize=auto;html=1;exitX=0.5;exitY=1;exitDx=0;exitDy=0;entryX=0.5;entryY=0;entryDx=0;entryDy=0;rounded=0;endArrow=none;endFill=0;startArrow=block;startFill=1;" edge="1" parent="1" source="zEnzMZvFHLOG6NFuxoy2-1" target="zEnzMZvFHLOG6NFuxoy2-5">
          <mxGeometry relative="1" as="geometry" />
        </mxCell>
        <mxCell id="zEnzMZvFHLOG6NFuxoy2-1" value="distributor" style="whiteSpace=wrap;html=1;align=center;" vertex="1" parent="1">
          <mxGeometry x="160" y="100" width="100" height="40" as="geometry" />
        </mxCell>
        <mxCell id="zEnzMZvFHLOG6NFuxoy2-20" style="edgeStyle=orthogonalEdgeStyle;rounded=0;orthogonalLoop=1;jettySize=auto;html=1;exitX=1;exitY=0.5;exitDx=0;exitDy=0;startArrow=none;startFill=0;endArrow=none;endFill=0;strokeColor=#000000;" edge="1" parent="1" source="zEnzMZvFHLOG6NFuxoy2-2" target="zEnzMZvFHLOG6NFuxoy2-7">
          <mxGeometry relative="1" as="geometry" />
        </mxCell>
        <mxCell id="zEnzMZvFHLOG6NFuxoy2-2" value="product" style="whiteSpace=wrap;html=1;align=center;" vertex="1" parent="1">
          <mxGeometry x="160" y="500" width="100" height="40" as="geometry" />
        </mxCell>
        <mxCell id="zEnzMZvFHLOG6NFuxoy2-22" style="edgeStyle=orthogonalEdgeStyle;rounded=0;orthogonalLoop=1;jettySize=auto;html=1;exitX=1;exitY=0.5;exitDx=0;exitDy=0;startArrow=none;startFill=0;endArrow=none;endFill=0;strokeColor=#000000;entryX=0;entryY=0.5;entryDx=0;entryDy=0;" edge="1" parent="1" source="zEnzMZvFHLOG6NFuxoy2-3" target="zEnzMZvFHLOG6NFuxoy2-11">
          <mxGeometry relative="1" as="geometry">
            <mxPoint x="504" y="337" as="targetPoint" />
          </mxGeometry>
        </mxCell>
        <mxCell id="zEnzMZvFHLOG6NFuxoy2-3" value="order" style="whiteSpace=wrap;html=1;align=center;" vertex="1" parent="1">
          <mxGeometry x="160" y="310" width="100" height="40" as="geometry" />
        </mxCell>
        <mxCell id="zEnzMZvFHLOG6NFuxoy2-18" style="edgeStyle=orthogonalEdgeStyle;rounded=0;orthogonalLoop=1;jettySize=auto;html=1;exitX=0.5;exitY=1;exitDx=0;exitDy=0;endArrow=none;endFill=0;strokeColor=#000000;shape=link;" edge="1" parent="1" source="zEnzMZvFHLOG6NFuxoy2-5" target="zEnzMZvFHLOG6NFuxoy2-3">
          <mxGeometry relative="1" as="geometry" />
        </mxCell>
        <mxCell id="zEnzMZvFHLOG6NFuxoy2-5" value="published_order" style="shape=rhombus;perimeter=rhombusPerimeter;whiteSpace=wrap;html=1;align=center;" vertex="1" parent="1">
          <mxGeometry x="150" y="200" width="120" height="60" as="geometry" />
        </mxCell>
        <mxCell id="zEnzMZvFHLOG6NFuxoy2-6" value="has" style="shape=rhombus;perimeter=rhombusPerimeter;whiteSpace=wrap;html=1;align=center;" vertex="1" parent="1">
          <mxGeometry x="150" y="390" width="120" height="60" as="geometry" />
        </mxCell>
        <mxCell id="zEnzMZvFHLOG6NFuxoy2-7" value="can_product" style="shape=rhombus;perimeter=rhombusPerimeter;whiteSpace=wrap;html=1;align=center;" vertex="1" parent="1">
          <mxGeometry x="340" y="490" width="120" height="60" as="geometry" />
        </mxCell>
        <mxCell id="zEnzMZvFHLOG6NFuxoy2-24" style="edgeStyle=orthogonalEdgeStyle;rounded=0;orthogonalLoop=1;jettySize=auto;html=1;exitX=1;exitY=0.5;exitDx=0;exitDy=0;entryX=0;entryY=0.5;entryDx=0;entryDy=0;startArrow=none;startFill=0;endArrow=none;endFill=0;strokeColor=#000000;" edge="1" parent="1" source="zEnzMZvFHLOG6NFuxoy2-8" target="zEnzMZvFHLOG6NFuxoy2-9">
          <mxGeometry relative="1" as="geometry" />
        </mxCell>
        <mxCell id="zEnzMZvFHLOG6NFuxoy2-8" value="equipment" style="whiteSpace=wrap;html=1;align=center;" vertex="1" parent="1">
          <mxGeometry x="510" y="500" width="100" height="40" as="geometry" />
        </mxCell>
        <mxCell id="zEnzMZvFHLOG6NFuxoy2-25" style="edgeStyle=orthogonalEdgeStyle;rounded=0;orthogonalLoop=1;jettySize=auto;html=1;exitX=1;exitY=0.5;exitDx=0;exitDy=0;entryX=0;entryY=0.5;entryDx=0;entryDy=0;startArrow=none;startFill=0;endArrow=block;endFill=1;strokeColor=#000000;" edge="1" parent="1" source="zEnzMZvFHLOG6NFuxoy2-9" target="zEnzMZvFHLOG6NFuxoy2-10">
          <mxGeometry relative="1" as="geometry" />
        </mxCell>
        <mxCell id="zEnzMZvFHLOG6NFuxoy2-9" value="Relationship" style="shape=rhombus;perimeter=rhombusPerimeter;whiteSpace=wrap;html=1;align=center;" vertex="1" parent="1">
          <mxGeometry x="660" y="490" width="120" height="60" as="geometry" />
        </mxCell>
        <mxCell id="zEnzMZvFHLOG6NFuxoy2-27" style="edgeStyle=orthogonalEdgeStyle;rounded=0;orthogonalLoop=1;jettySize=auto;html=1;exitX=0.5;exitY=0;exitDx=0;exitDy=0;startArrow=none;startFill=0;endArrow=none;endFill=0;strokeColor=#000000;entryX=0.5;entryY=1;entryDx=0;entryDy=0;" edge="1" parent="1" source="zEnzMZvFHLOG6NFuxoy2-10" target="zEnzMZvFHLOG6NFuxoy2-13">
          <mxGeometry relative="1" as="geometry">
            <mxPoint x="870" y="470" as="targetPoint" />
          </mxGeometry>
        </mxCell>
        <mxCell id="zEnzMZvFHLOG6NFuxoy2-10" value="factory" style="whiteSpace=wrap;html=1;align=center;" vertex="1" parent="1">
          <mxGeometry x="820" y="500" width="100" height="40" as="geometry" />
        </mxCell>
        <mxCell id="zEnzMZvFHLOG6NFuxoy2-23" style="edgeStyle=orthogonalEdgeStyle;rounded=0;orthogonalLoop=1;jettySize=auto;html=1;exitX=1;exitY=0.5;exitDx=0;exitDy=0;entryX=0;entryY=0.5;entryDx=0;entryDy=0;startArrow=none;startFill=0;endArrow=none;endFill=0;strokeColor=#000000;" edge="1" parent="1" source="zEnzMZvFHLOG6NFuxoy2-11" target="zEnzMZvFHLOG6NFuxoy2-12">
          <mxGeometry relative="1" as="geometry" />
        </mxCell>
        <mxCell id="zEnzMZvFHLOG6NFuxoy2-11" value="Relationship" style="shape=rhombus;perimeter=rhombusPerimeter;whiteSpace=wrap;html=1;align=center;" vertex="1" parent="1">
          <mxGeometry x="500" y="300" width="120" height="60" as="geometry" />
        </mxCell>
        <mxCell id="zEnzMZvFHLOG6NFuxoy2-12" value="facManager" style="whiteSpace=wrap;html=1;align=center;" vertex="1" parent="1">
          <mxGeometry x="820" y="310" width="100" height="40" as="geometry" />
        </mxCell>
        <mxCell id="zEnzMZvFHLOG6NFuxoy2-26" style="edgeStyle=orthogonalEdgeStyle;rounded=0;orthogonalLoop=1;jettySize=auto;html=1;exitX=0.5;exitY=0;exitDx=0;exitDy=0;entryX=0.5;entryY=1;entryDx=0;entryDy=0;startArrow=none;startFill=0;endArrow=none;endFill=0;strokeColor=#000000;" edge="1" parent="1" source="zEnzMZvFHLOG6NFuxoy2-13" target="zEnzMZvFHLOG6NFuxoy2-12">
          <mxGeometry relative="1" as="geometry" />
        </mxCell>
        <mxCell id="zEnzMZvFHLOG6NFuxoy2-13" value="Relationship" style="shape=rhombus;perimeter=rhombusPerimeter;whiteSpace=wrap;html=1;align=center;" vertex="1" parent="1">
          <mxGeometry x="810" y="390" width="120" height="60" as="geometry" />
        </mxCell>
        <mxCell id="zEnzMZvFHLOG6NFuxoy2-28" style="edgeStyle=orthogonalEdgeStyle;rounded=0;orthogonalLoop=1;jettySize=auto;html=1;exitX=0;exitY=0.5;exitDx=0;exitDy=0;entryX=1;entryY=0.5;entryDx=0;entryDy=0;startArrow=none;startFill=0;endArrow=block;endFill=1;strokeColor=#000000;" edge="1" parent="1" source="zEnzMZvFHLOG6NFuxoy2-14" target="zEnzMZvFHLOG6NFuxoy2-10">
          <mxGeometry relative="1" as="geometry" />
        </mxCell>
        <mxCell id="zEnzMZvFHLOG6NFuxoy2-14" value="Relationship" style="shape=rhombus;double=1;perimeter=rhombusPerimeter;whiteSpace=wrap;html=1;align=center;" vertex="1" parent="1">
          <mxGeometry x="970" y="490" width="120" height="60" as="geometry" />
        </mxCell>
        <mxCell id="zEnzMZvFHLOG6NFuxoy2-29" style="edgeStyle=orthogonalEdgeStyle;rounded=0;orthogonalLoop=1;jettySize=auto;html=1;exitX=0;exitY=0.5;exitDx=0;exitDy=0;entryX=1;entryY=0.5;entryDx=0;entryDy=0;startArrow=none;startFill=0;endArrow=block;endFill=1;strokeColor=#000000;shape=link;" edge="1" parent="1" source="zEnzMZvFHLOG6NFuxoy2-15" target="zEnzMZvFHLOG6NFuxoy2-14">
          <mxGeometry relative="1" as="geometry" />
        </mxCell>
        <mxCell id="zEnzMZvFHLOG6NFuxoy2-15" value="contactor" style="shape=ext;margin=3;double=1;whiteSpace=wrap;html=1;align=center;" vertex="1" parent="1">
          <mxGeometry x="1150" y="500" width="100" height="40" as="geometry" />
        </mxCell>
        <mxCell id="zEnzMZvFHLOG6NFuxoy2-16" value="" style="shape=link;html=1;exitX=0.5;exitY=1;exitDx=0;exitDy=0;entryX=0.5;entryY=0;entryDx=0;entryDy=0;" edge="1" parent="1" source="zEnzMZvFHLOG6NFuxoy2-3" target="zEnzMZvFHLOG6NFuxoy2-6">
          <mxGeometry width="100" relative="1" as="geometry">
            <mxPoint x="320" y="389" as="sourcePoint" />
            <mxPoint x="420" y="389" as="targetPoint" />
          </mxGeometry>
        </mxCell>
        <mxCell id="zEnzMZvFHLOG6NFuxoy2-19" value="" style="endArrow=none;html=1;strokeColor=#000000;entryX=0.5;entryY=1;entryDx=0;entryDy=0;exitX=0.5;exitY=0;exitDx=0;exitDy=0;" edge="1" parent="1" source="zEnzMZvFHLOG6NFuxoy2-2" target="zEnzMZvFHLOG6NFuxoy2-6">
          <mxGeometry width="50" height="50" relative="1" as="geometry">
            <mxPoint x="370" y="410" as="sourcePoint" />
            <mxPoint x="420" y="360" as="targetPoint" />
          </mxGeometry>
        </mxCell>
        <mxCell id="zEnzMZvFHLOG6NFuxoy2-21" value="" style="endArrow=block;html=1;strokeColor=#000000;entryX=0;entryY=0.5;entryDx=0;entryDy=0;exitX=1;exitY=0.5;exitDx=0;exitDy=0;startArrow=none;startFill=0;endFill=1;" edge="1" parent="1" source="zEnzMZvFHLOG6NFuxoy2-7" target="zEnzMZvFHLOG6NFuxoy2-8">
          <mxGeometry width="50" height="50" relative="1" as="geometry">
            <mxPoint x="370" y="410" as="sourcePoint" />
            <mxPoint x="420" y="360" as="targetPoint" />
          </mxGeometry>
        </mxCell>
      </root>
    </mxGraphModel>
  </diagram>
</mxfile>
